#N canvas 415 185 900 640 12;
#X obj 836 19 mlHelp;
#X floatatom 377 146 5 0 0 0 - - - 0;
#X obj 197 195 * 1;
#X floatatom 197 219 5 0 0 0 - - - 0;
#X obj 197 242 osc~;
#X obj 197 266 *~;
#X floatatom 241 243 5 0 1 0 - - - 0;
#X floatatom 287 219 5 0 0 0 - - - 0;
#X obj 287 242 osc~;
#X obj 287 266 *~;
#X floatatom 331 243 5 0 1 0 - - - 0;
#X floatatom 377 219 5 0 0 0 - - - 0;
#X obj 377 242 osc~;
#X obj 377 266 *~;
#X floatatom 421 243 5 0 1 0 - - - 0;
#X floatatom 467 219 5 0 0 0 - - - 0;
#X obj 467 242 osc~;
#X obj 467 266 *~;
#X floatatom 511 243 5 0 1 0 - - - 0;
#X floatatom 557 219 5 0 0 0 - - - 0;
#X obj 557 242 osc~;
#X obj 557 266 *~;
#X floatatom 601 243 5 0 1 0 - - - 0;
#X obj 287 195 * 2;
#X obj 377 195 * 3;
#X obj 467 195 * 4;
#X obj 557 195 * 5;
#X obj 11 10 mlMixerUI;
#X obj 377 317 throw~ ch1;
#X connect 1 0 2 0;
#X connect 1 0 23 0;
#X connect 1 0 24 0;
#X connect 1 0 25 0;
#X connect 1 0 26 0;
#X connect 2 0 3 0;
#X connect 3 0 4 0;
#X connect 4 0 5 0;
#X connect 5 0 28 0;
#X connect 6 0 5 1;
#X connect 7 0 8 0;
#X connect 8 0 9 0;
#X connect 9 0 28 0;
#X connect 10 0 9 1;
#X connect 11 0 12 0;
#X connect 12 0 13 0;
#X connect 13 0 28 0;
#X connect 14 0 13 1;
#X connect 15 0 16 0;
#X connect 16 0 17 0;
#X connect 17 0 28 0;
#X connect 18 0 17 1;
#X connect 19 0 20 0;
#X connect 20 0 21 0;
#X connect 21 0 28 0;
#X connect 22 0 21 1;
#X connect 23 0 7 0;
#X connect 24 0 11 0;
#X connect 25 0 15 0;
#X connect 26 0 19 0;
