#N canvas 640 336 900 640 12;
#X obj 836 19 mlHelp;
#X obj 12 10 mlMixerUI;
#X obj 279 58 bng 15 250 50 0 empty empty empty 17 7 0 10 #fcfcfc #000000
#000000;
#X obj 279 83 t b b;
#X obj 179 180 pow 2;
#X obj 222 179 pow 2;
#X msg 279 113 4;
#X msg 322 113 3;
#X obj 179 210 +;
#X floatatom 179 240 5 0 0 0 - - - 0;
#X obj 179 269 sqrt;
#X floatatom 179 299 5 0 0 0 - - - 0;
#X obj 332 179 expr sqrt(pow($f1 \, 2) + pow($f2 \, 2));
#X floatatom 332 203 5 0 0 0 - - - 0;
#X connect 2 0 3 0;
#X connect 3 0 6 0;
#X connect 3 1 7 0;
#X connect 4 0 8 0;
#X connect 5 0 8 1;
#X connect 6 0 4 0;
#X connect 6 0 12 0;
#X connect 7 0 5 0;
#X connect 7 0 12 1;
#X connect 8 0 9 0;
#X connect 9 0 10 0;
#X connect 10 0 11 0;
#X connect 12 0 13 0;
