#N canvas 828 237 900 640 12;
#X obj 51 163 line;
#X floatatom 51 193 5 0 0 0 - - - 0;
#X obj 51 227 osc~;
#X floatatom 51 104 5 0 0 0 - - - 0;
#X msg 51 133 \$1 1000;
#X obj 424 161 vline~;
#X obj 422 341 *~;
#X obj 424 215 osc~;
#X obj 51 274 *~;
#X floatatom 120 197 5 0 0 0 - - - 0;
#X msg 119 136 0 200;
#X msg 170 136 0.5 500;
#X text 424 53 |destimation;
#X text 455 74 |Duration;
#X text 482 92 |Delay;
#X msg 424 131 500 500 0 \, 300 500 500 \, 800 100 1000 \, 0 100 1100
;
#X msg 440 251 0.5 20 0 \, 0.2 10 200 \, 0 100 100;
#X obj 440 281 vline~;
#X obj 336 48 bng 50 250 50 0 empty empty Trig 9 24 0 14 #fcfcfc #000000
#000000;
#X text 518 233 Amp Envelope;
#X text 480 113 Pitch Envelope;
#X obj 10 15 mlMixerUI;
#X obj 120 169 line;
#X obj 51 298 throw~ ch1;
#X obj 422 365 throw~ ch2;
#X obj 440 311 *~;
#X obj 424 185 *~;
#X text 452 186 Change decay curve;
#X text 468 313 Change decay curve;
#X connect 0 0 1 0;
#X connect 1 0 2 0;
#X connect 2 0 8 0;
#X connect 3 0 4 0;
#X connect 4 0 0 0;
#X connect 5 0 26 0;
#X connect 5 0 26 1;
#X connect 6 0 24 0;
#X connect 7 0 6 0;
#X connect 8 0 23 0;
#X connect 9 0 8 1;
#X connect 10 0 22 0;
#X connect 11 0 22 0;
#X connect 15 0 5 0;
#X connect 16 0 17 0;
#X connect 17 0 25 0;
#X connect 17 0 25 1;
#X connect 18 0 15 0;
#X connect 18 0 16 0;
#X connect 22 0 9 0;
#X connect 25 0 6 1;
#X connect 26 0 7 0;
