#N canvas 326 36 900 640 12;
#X obj 836 19 mlHelp;
#X obj 12 10 mlMixerUI;
#X obj 123 362 osc~;
#X floatatom 141 303 5 0 0 0 - - - 0;
#X obj 123 332 +~;
#X floatatom 46 184 5 0 0 0 - - - 0;
#X obj 46 207 osc~;
#X obj 46 261 *~;
#X floatatom 64 237 5 0 0 0 - - - 0;
#X text 140 283 carrier;
#X text 44 162 modulator;
#X obj 144 76 hsl 60 15 50 2000 0 0 empty empty empty -2 -8 0 10 #c6ffc7
#000000 #000000 0 1;
#X obj 46 134 *;
#X floatatom 64 85 5 0 0 0 - - - 0;
#X obj 46 88 bng 15 250 50 0 empty empty empty 17 7 0 10 #fcfcfc #000000
#000000;
#X obj 123 388 mlAmpEnv;
#X obj 185 353 bng 15 250 50 0 empty empty empty 17 7 0 10 #fcfcfc
#000000 #000000;
#X obj 123 414 throw~ ch1;
#X connect 2 0 15 0;
#X connect 3 0 4 1;
#X connect 4 0 2 0;
#X connect 5 0 6 0;
#X connect 6 0 7 0;
#X connect 7 0 4 0;
#X connect 8 0 7 1;
#X connect 11 0 12 0;
#X connect 11 0 3 0;
#X connect 12 0 5 0;
#X connect 13 0 12 1;
#X connect 14 0 12 0;
#X connect 15 0 17 0;
#X connect 16 0 15 1;
