#N canvas 949 314 900 640 12;
#X obj 40 95 key;
#X floatatom 40 125 5 0 0 0 - - - 0;
#X obj 88 96 keyup;
#X floatatom 88 126 5 0 0 0 - - - 0;
#X obj 142 96 keyname;
#X obj 40 156 select 97 115;
#X msg 41 194 440;
#X msg 85 193 660;
#X obj 66 239 osc~;
#X obj 377 129 midiin;
#X obj 377 188 print;
#X floatatom 377 159 5 0 0 0 - - - 0;
#X obj 495 130 notein;
#X floatatom 492 218 5 0 0 1 Note - - 0;
#X floatatom 515 189 5 0 0 1 Velocity - - 0;
#X floatatom 534 160 5 0 0 1 channel - - 0;
#X obj 495 249 mtof;
#X floatatom 495 279 5 0 0 1 Frequency - - 0;
#X text 531 251 MIDI to frequency;
#X obj 495 403 osc~;
#X obj 495 433 throw~ chan2;
#X text 124 194 Press 'a' or 's';
#X obj 715 132 ctlin;
#X floatatom 715 220 5 0 0 1 Value - - 0;
#X floatatom 731 189 5 0 0 1 Control\ $ - - 0;
#X floatatom 747 160 5 0 0 1 channel - - 0;
#X obj 715 249 / 127;
#X floatatom 715 279 5 0 0 0 - - - 0;
#X obj 7 9 mlMixerUI;
#X floatatom 141 127 5 0 0 0 - - - 0;
#X symbolatom 188 125 10 0 0 0 - - - 0;
#X obj 493 335 mlSlew;
#X obj 66 263 throw~ ch1;
#X connect 0 0 1 0;
#X connect 1 0 5 0;
#X connect 2 0 3 0;
#X connect 4 0 29 0;
#X connect 4 1 30 0;
#X connect 5 0 6 0;
#X connect 5 1 7 0;
#X connect 6 0 8 0;
#X connect 7 0 8 0;
#X connect 8 0 32 0;
#X connect 9 0 11 0;
#X connect 11 0 10 0;
#X connect 12 0 13 0;
#X connect 12 1 14 0;
#X connect 12 2 15 0;
#X connect 13 0 16 0;
#X connect 16 0 17 0;
#X connect 17 0 31 0;
#X connect 19 0 20 0;
#X connect 22 0 23 0;
#X connect 22 1 24 0;
#X connect 22 2 25 0;
#X connect 23 0 26 0;
#X connect 26 0 27 0;
#X connect 31 0 19 0;
