#N canvas 771 212 900 640 12;
#X obj 836 19 mlHelp;
#X obj 12 10 mlMixerUI;
#X obj 85 10 mlSequencer;
#X obj 169 121 osc~ 220;
#X obj 169 181 *~;
#X floatatom 187 152 5 0 0 0 - - - 0;
#X obj 169 251 clip~ -1 1;
#X obj 169 281 throw~ ch1;
#X floatatom 236 182 5 0 1 0 - - - 0;
#X obj 202 221 * -1;
#X text 281 183 Change the clipping area;
#X connect 3 0 4 0;
#X connect 4 0 6 0;
#X connect 5 0 4 1;
#X connect 6 0 7 0;
#X connect 8 0 6 2;
#X connect 8 0 9 0;
#X connect 9 0 6 1;
