#N canvas 966 211 900 640 12;
#X obj 836 19 mlHelp;
#X obj 12 10 mlMixerUI;
#X obj 85 10 mlSequencer;
#X obj 173 128 osc~ 172;
#X obj 173 182 *~;
#X obj 194 154 hsl 128 15 0 10 0 0 empty empty empty -2 -8 0 10 #3f3e35
#a2cf44 #bbbbbb 0 1;
#X obj 173 212 expr~ if($v1 > 1 \, 2-$v1 \, $v1);
#X obj 173 232 expr~ if($v1 < -1 \, -2-$v1 \, $v1);
#X obj 173 302 throw~ ch1;
#X obj 173 252 expr~ if($v1 > 1 \, 2-$v1 \, $v1);
#X obj 173 272 expr~ if($v1 < -1 \, -2-$v1 \, $v1);
#X connect 3 0 4 0;
#X connect 4 0 6 0;
#X connect 5 0 4 1;
#X connect 6 0 7 0;
#X connect 7 0 9 0;
#X connect 9 0 10 0;
#X connect 10 0 8 0;
