#N canvas 759 170 900 640 12;
#X obj 836 19 mlHelp;
#X obj 12 10 mlMixerUI;
#X obj 85 10 mlSequencer;
#X obj 245 368 throw~ ch1;
#X obj 94 267 osc~ 258;
#X obj 94 302 expr~ round($v1 / $f2);
#X obj 245 338 *~;
#X floatatom 263 268 5 0 1 0 - - -;
#X obj 266 127 hsl 128 15 1 16 0 0 empty empty empty -2 -8 0 10 -54092
-167121 -191407 12700 1;
#X obj 263 148 int;
#X floatatom 263 172 5 0 0 0 - - -;
#X obj 263 195 expr pow(2 \, $f1) - 1;
#X floatatom 263 219 5 0 0 0 - - -;
#X obj 263 242 expr 1 / $f1;
#X connect 4 0 5 0;
#X connect 5 0 6 0;
#X connect 6 0 3 0;
#X connect 7 0 5 1;
#X connect 7 0 6 1;
#X connect 8 0 9 0;
#X connect 9 0 10 0;
#X connect 10 0 11 0;
#X connect 11 0 12 0;
#X connect 12 0 13 0;
#X connect 13 0 7 0;
