#N canvas 1152 252 900 640 12;
#X obj 836 19 mlHelp;
#X obj 12 10 mlMixerUI;
#X obj 85 10 mlSequencer;
#X obj 189 121 hsl 128 15 0 127 0 0 empty empty empty -2 -8 0 10 #fcfcfc
#000000 #000000 0 1;
#X obj 61 134 tgl 15 0 empty empty empty 17 7 0 10 #fcfcfc #000000
#000000 0 1;
#X floatatom 186 141 5 0 0 0 - - - 0;
#X obj 61 159 metro;
#X obj 61 189 f;
#X obj 107 189 + 1;
#X floatatom 61 219 5 0 0 0 - - - 0;
#X obj 107 219 mod 10;
#X obj 61 248 tabread \$0-points;
#X floatatom 61 278 5 0 0 0 - - - 0;
#X obj 161 317 pack;
#X msg 161 347 \$1 \$2;
#X obj 161 377 vline~;
#X obj 161 407 throw~ ch1;
#N canvas 0 22 450 278 (subpatch) 0;
#X array \$0-points 10 float 3;
#A 0 -0.728573 -0.114294 0.314273 0.271416 0.157132 -0.0142949 -0.342863
-0.328577 0.585699 0.628556;
#X coords 0 1 10 -1 200 140 1;
#X restore 373 109 graph;
#X text 47 78 Try using a phasor instead of metro;
#X connect 3 0 5 0;
#X connect 4 0 6 0;
#X connect 5 0 6 1;
#X connect 5 0 13 1;
#X connect 6 0 7 0;
#X connect 7 0 9 0;
#X connect 7 0 8 0;
#X connect 8 0 10 0;
#X connect 9 0 11 0;
#X connect 10 0 7 1;
#X connect 11 0 12 0;
#X connect 12 0 13 0;
#X connect 13 0 14 0;
#X connect 14 0 15 0;
#X connect 15 0 16 0;
