#N canvas 927 245 900 640 12;
#X obj 836 19 mlHelp;
#X obj 12 10 mlMixerUI;
#X obj 85 10 mlSequencer;
#X obj 111 356 throw~ ch1;
#X obj 352 356 throw~ ch4;
#X obj 36 90 phasor~;
#X floatatom 36 61 5 0 0 0 - - - 0;
#X obj 36 120 mlBipolar;
#X obj 111 326 lop~ 1000;
#X obj 274 326 hip~ 1000;
#X obj 271 119 hsl 128 15 0 5000 0 0 empty empty Cutoff -2 -8 0 10
#3f3e32 #99c842 #ffc7c6 0 1;
#X obj 189 326 bp~ 1000 1;
#X obj 444 326 bob~ 1;
#X obj 352 326 vcf~ 1000 1;
#X obj 189 356 throw~ ch2;
#X obj 274 356 throw~ ch3;
#X obj 444 356 throw~ ch5;
#X obj 414 119 hsl 128 15 0 10 0 0 empty empty Reso -2 -8 0 10 #3f3e32
#99c842 #ffc7c6 0 1;
#X floatatom 411 140 5 0 0 0 - - - 0;
#X floatatom 268 139 5 0 0 0 - - - 0;
#X obj 36 150 s~ osci;
#X obj 208 279 r~ osci;
#X obj 268 168 s cut;
#X obj 411 169 s reso;
#X obj 272 279 r cut;
#X obj 322 279 r reso;
#X connect 5 0 7 0;
#X connect 6 0 5 0;
#X connect 7 0 20 0;
#X connect 8 0 3 0;
#X connect 9 0 15 0;
#X connect 10 0 19 0;
#X connect 11 0 14 0;
#X connect 12 0 16 0;
#X connect 13 0 4 0;
#X connect 13 1 4 0;
#X connect 17 0 18 0;
#X connect 18 0 23 0;
#X connect 19 0 22 0;
#X connect 21 0 8 0;
#X connect 21 0 11 0;
#X connect 21 0 9 0;
#X connect 21 0 13 0;
#X connect 21 0 12 0;
#X connect 24 0 8 1;
#X connect 24 0 11 1;
#X connect 24 0 9 1;
#X connect 24 0 13 1;
#X connect 24 0 12 1;
#X connect 25 0 11 2;
#X connect 25 0 13 2;
#X connect 25 0 12 2;
