#N canvas 249 121 608 522 12;
#X obj 94 486 sphere;
#X obj 93 278 gemhead;
#X floatatom 107 309 5 0 0 0 - - - 0;
#X floatatom 155 309 5 0 0 0 - - - 0;
#X floatatom 203 310 5 0 0 0 - - - 0;
#X obj 94 338 colorRGB;
#X obj 12 369 loadbang;
#X msg 12 397 draw line;
#X obj 94 397 scaleXYZ;
#X floatatom 111 368 5 0 0 0 - - - 0;
#X obj 94 456 rotateXYZ;
#X floatatom 114 427 5 0 0 0 - - - 0;
#X floatatom 162 427 5 0 0 0 - - - 0;
#X floatatom 206 452 5 0 0 0 - - - 0;
#X floatatom 159 368 5 0 0 0 - - - 0;
#X floatatom 207 368 5 0 0 0 - - - 0;
#X obj 361 463 rectangle 0.5 0.5;
#X obj 359 423 translateXYZ;
#X floatatom 386 334 5 0 0 0 - - - 0;
#X floatatom 413 364 5 0 0 0 - - - 0;
#X floatatom 440 394 5 0 0 0 - - - 0;
#X obj 93 247 tgl 19 0 empty empty empty 0 -10 0 12 #fcfcfc #000000 #000000 0 1;
#X obj 359 304 gemhead;
#X obj 359 274 tgl 19 0 empty empty empty 0 -10 0 12 #fcfcfc #000000 #000000 0 1;
#X obj 7 7 mlgemwin;
#X obj 74 7 mlmidi;
#X obj 177 91 r mnote;
#X obj 373 137 pix_film;
#X connect 1 0 5 0;
#X connect 2 0 5 1;
#X connect 3 0 5 2;
#X connect 4 0 5 3;
#X connect 5 0 8 0;
#X connect 6 0 7 0;
#X connect 7 0 0 0;
#X connect 8 0 10 0;
#X connect 9 0 8 1;
#X connect 10 0 0 0;
#X connect 11 0 10 1;
#X connect 12 0 10 2;
#X connect 13 0 10 3;
#X connect 14 0 8 2;
#X connect 15 0 8 3;
#X connect 17 0 16 0;
#X connect 18 0 17 1;
#X connect 19 0 17 2;
#X connect 20 0 17 3;
#X connect 21 0 1 0;
#X connect 22 0 17 0;
#X connect 23 0 22 0;
