#N canvas 798 46 215 239 12;
#X obj 20 12 inlet~;
#X obj 20 161 *~;
#X obj 20 191 outlet~;
#X obj 38 131 vline~;
#X floatatom 38 42 5 0 0 0 - - - 0;
#X msg 57 101 0 \, 1 10 \, 0 1000 10;
#X obj 57 71 inlet trig;
#X connect 0 0 1 0;
#X connect 1 0 2 0;
#X connect 3 0 1 1;
#X connect 4 0 3 0;
#X connect 5 0 3 0;
#X connect 6 0 5 0;
