#N canvas 862 47 239 340 12;
#X obj 16 291 throw~ MBusL;
#X obj 69 261 throw~ MBusR;
#X obj 16 201 *~;
#X obj 34 41 mlVU;
#X obj 34 171 line~;
#X msg 86 171 0;
#X obj 86 141 r init;
#X text 84 234 <-- Fix the panner;
#X obj 16 231 mlPanner;
#X obj 17 11 catch~ ch\$1;
#X obj 34 111 r volCh\$1;
#X obj 69 201 r panCh\$1;
#X obj 34 71 s vuCh\$1;
#X msg 34 141 \$1 10;
#X connect 2 0 8 0;
#X connect 3 0 12 0;
#X connect 4 0 2 1;
#X connect 5 0 2 1;
#X connect 6 0 5 0;
#X connect 8 0 0 0;
#X connect 8 1 1 0;
#X connect 9 0 2 0;
#X connect 9 0 3 0;
#X connect 10 0 13 0;
#X connect 11 0 8 1;
#X connect 13 0 4 0;
