#N canvas 766 328 484 391 12;
#X floatatom 176 106 0 0 0 0 CPU_Load_% - -;
#X obj 226 159 cputime;
#X obj 226 19 loadbang;
#X obj 226 103 metro 1000;
#X msg 226 47 1;
#X floatatom 226 75 0 0 0 0 - - -;
#X obj 226 131 t b b;
#X obj 226 219 * 0.1;
#X obj 226 188 int;
#X text 271 75 <-- on/off;
#X connect 1 0 8 0;
#X connect 2 0 4 0;
#X connect 3 0 6 0;
#X connect 4 0 5 0;
#X connect 5 0 3 0;
#X connect 6 0 1 0;
#X connect 6 1 1 1;
#X connect 7 0 0 0;
#X connect 8 0 7 0;
#X coords 0 -1 1 1 105 30 2 100 100;
