#N canvas 1078 156 501 331 12;
#X obj 108 115 inlet~ input;
#X obj 270 219 throw~ ch4;
#X obj 29 189 lop~ 1000;
#X obj 192 189 hip~ 1000;
#X obj 20 25 hsl 128 15 0 5000 0 0 empty empty Cutoff -2 -8 0 10 -62413
-158865 -261234 5100 1;
#X obj 107 189 bp~ 1000 1;
#X obj 362 189 bob~ 1;
#X obj 270 189 vcf~ 1000 1;
#X obj 105 218 throw~ ch2;
#X obj 192 219 throw~ ch3;
#X obj 362 219 throw~ ch5;
#X obj 165 35 hsl 128 15 0 10 0 0 empty empty Reso -2 -8 0 10 -62413
-158865 -261234 11700 1;
#X floatatom 162 56 5 0 0 0 - - -;
#X floatatom 19 55 5 0 0 0 - - -;
#X obj 19 84 s cut;
#X obj 162 85 s reso;
#X obj 190 142 r cut;
#X obj 240 142 r reso;
#X obj 27 246 outlet~ output;
#X connect 0 0 5 0;
#X connect 2 0 18 0;
#X connect 3 0 9 0;
#X connect 4 0 13 0;
#X connect 5 0 8 0;
#X connect 6 0 10 0;
#X connect 7 0 1 0;
#X connect 7 1 1 0;
#X connect 11 0 12 0;
#X connect 12 0 15 0;
#X connect 13 0 14 0;
#X connect 16 0 2 1;
#X connect 16 0 5 1;
#X connect 16 0 3 1;
#X connect 16 0 7 1;
#X connect 16 0 6 1;
#X connect 17 0 5 2;
#X connect 17 0 7 2;
#X connect 17 0 6 2;
