#N canvas 78 21 704 558 12;
#X declare -lib Gem;
#X obj 10 9 declare -lib Gem;
#X obj 60 158 gemwin;
#X msg 60 69 create \, 1;
#X msg 83 128 dimen 640 480;
#X msg 73 98 0 \, destroy;
#X obj 136 426 sphere;
#X obj 136 219 gemhead;
#X floatatom 149 249 5 0 0 0 - - - 0;
#X floatatom 197 249 5 0 0 0 - - - 0;
#X floatatom 245 250 5 0 0 0 - - - 0;
#X obj 136 278 colorRGB;
#X obj 54 309 loadbang;
#X msg 54 337 draw line;
#X obj 136 337 scaleXYZ;
#X floatatom 153 308 5 0 0 0 - - - 0;
#X obj 136 396 rotateXYZ;
#X floatatom 156 367 5 0 0 0 - - - 0;
#X floatatom 204 367 5 0 0 0 - - - 0;
#X floatatom 251 367 5 0 0 0 - - - 0;
#X floatatom 201 308 5 0 0 0 - - - 0;
#X floatatom 249 308 5 0 0 0 - - - 0;
#X connect 2 0 1 0;
#X connect 3 0 1 0;
#X connect 4 0 1 0;
#X connect 6 0 10 0;
#X connect 7 0 10 1;
#X connect 8 0 10 2;
#X connect 9 0 10 3;
#X connect 10 0 13 0;
#X connect 11 0 12 0;
#X connect 12 0 5 0;
#X connect 13 0 15 0;
#X connect 14 0 13 1;
#X connect 15 0 5 0;
#X connect 16 0 15 1;
#X connect 17 0 15 2;
#X connect 18 0 15 3;
#X connect 19 0 13 2;
#X connect 20 0 13 3;
