#N canvas 531 34 715 518 12;
#X declare -lib Gem;
#X obj 102 62 gemhead;
#X obj 5 9 declare -lib Gem;
#X obj 44 433 sphere;
#X msg 274 7 create \, 1;
#X msg 308 56 dimen 1280 720;
#X obj 272 86 gemwin;
#X msg 292 31 destroy \, 0;
#X msg 132 330 draw point;
#X msg 130 304 draw fill;
#X msg 130 357 draw line;
#X obj 104 124 translateXYZ;
#X obj 104 203 rotateXYZ;
#X obj 104 270 scaleXYZ;
#X floatatom 154 386 5 0 0 0 - - - 0;
#X floatatom 174 409 5 0 0 0 - - - 0;
#X text 216 408 size;
#X text 197 385 seg;
#X floatatom 118 97 5 0 0 0 - - - 0;
#X floatatom 165 97 5 0 0 0 - - - 0;
#X floatatom 212 98 5 0 0 0 - - - 0;
#X floatatom 122 176 5 0 0 0 - - - 0;
#X floatatom 170 176 5 0 0 0 - - - 0;
#X floatatom 218 176 5 0 0 0 - - - 0;
#X floatatom 121 241 5 0 0 0 - - - 0;
#X floatatom 172 240 5 0 0 0 - - - 0;
#X floatatom 224 239 5 0 0 0 - - - 0;
#X floatatom 225 210 5 0 0 0 - - - 0;
#X obj 220 122 sin;
#X obj 379 192 i;
#X obj 378 125 tgl 19 0 empty empty empty 0 -10 0 12 #fcfcfc #000000 #000000 0 1;
#X obj 429 195 + 1;
#X floatatom 379 227 5 0 0 0 - - - 0;
#X obj 377 156 metro 50;
#X obj 219 150 * 10;
#X obj 33 312 cone;
#X connect 0 0 10 0;
#X connect 0 0 34 0;
#X connect 3 0 5 0;
#X connect 4 0 5 0;
#X connect 6 0 5 0;
#X connect 7 0 2 0;
#X connect 7 0 34 0;
#X connect 8 0 2 0;
#X connect 8 0 34 0;
#X connect 9 0 34 0;
#X connect 10 0 11 0;
#X connect 11 0 12 0;
#X connect 11 0 34 0;
#X connect 12 0 2 0;
#X connect 13 0 2 1;
#X connect 13 0 34 1;
#X connect 14 0 2 2;
#X connect 14 0 34 2;
#X connect 17 0 10 1;
#X connect 18 0 10 2;
#X connect 19 0 10 3;
#X connect 20 0 11 1;
#X connect 21 0 11 2;
#X connect 22 0 11 3;
#X connect 23 0 12 1;
#X connect 24 0 12 2;
#X connect 25 0 12 3;
#X connect 26 0 23 0;
#X connect 26 0 24 0;
#X connect 26 0 25 0;
#X connect 27 0 33 0;
#X connect 28 0 31 0;
#X connect 28 0 30 0;
#X connect 29 0 32 0;
#X connect 30 0 28 1;
#X connect 31 0 27 0;
#X connect 31 0 21 0;
#X connect 31 0 20 0;
#X connect 32 0 28 0;
#X connect 33 0 22 0;
