#N canvas 626 481 773 805 12;
#X obj 31 245 line~;
#X obj 31 274 pow~ 4;
#X obj 31 303 *~;
#X obj 138 244 hip~ 8000;
#X obj 138 215 hip~ 8000;
#X obj 138 41 phasor~ 350;
#X obj 138 70 *~ 2;
#X obj 138 99 -~ 1;
#X obj 258 70 *~ 2;
#X obj 258 99 -~ 1;
#X obj 258 41 phasor~ 800;
#X obj 138 128 +~;
#X obj 138 186 hip~ 8000;
#X obj 31 332 *~ 4;
#X obj 312 104 noise~;
#X obj 312 133 /~ 4;
#X msg 31 216 1 \, 0 100;
#X text 138 274 // 3-Pole Highpass;
#X obj 138 157 +~;
#X text 138 11 // DETUNED OSCILLATORS;
#X obj 31 361 outlet~ hat;
#X obj 31 187 inlet trigger;
#X text 2 3 Hats;
#X connect 0 0 1 0;
#X connect 1 0 2 0;
#X connect 2 0 13 0;
#X connect 3 0 2 1;
#X connect 4 0 3 0;
#X connect 5 0 6 0;
#X connect 6 0 7 0;
#X connect 7 0 11 0;
#X connect 8 0 9 0;
#X connect 9 0 11 1;
#X connect 10 0 8 0;
#X connect 11 0 18 0;
#X connect 12 0 4 0;
#X connect 13 0 20 0;
#X connect 14 0 15 0;
#X connect 15 0 18 1;
#X connect 16 0 0 0;
#X connect 18 0 12 0;
#X connect 21 0 16 0;
