#N canvas 725 284 227 258 12;
#X msg 7 41 0 \, 1 200;
#X obj 7 60 line~;
#X text 90 48 <- Ramp Generator;
#X obj 7 147 -~ 0.25;
#X obj 7 166 cos~;
#X obj 7 118 *~ 20;
#X obj 7 89 sqrt~;
#X obj 7 195 lop~ 1000;
#X text 71 155 <- Sine Waveshaper;
#X text 67 88 <- Pitch Bend;
#X text 67 117 <- Pitch;
#X obj 7 224 outlet~ kick;
#X obj 7 13 inlet trigger;
#X connect 0 0 1 0;
#X connect 1 0 6 0;
#X connect 3 0 4 0;
#X connect 4 0 7 0;
#X connect 5 0 3 0;
#X connect 6 0 5 0;
#X connect 7 0 11 0;
#X connect 12 0 0 0;
