#N canvas 588 66 494 368 12;
#X obj 78 210 dac~;
#X obj 18 130 *~;
#X obj 148 130 *~;
#X obj 36 36 r volMaster;
#X obj 18 10 catch~ MBusL;
#X obj 148 10 catch~ MBusR;
#X obj 18 210 mlVU;
#X obj 148 210 mlVU;
#X obj 18 240 s vuMasterL;
#X obj 148 240 s vuMasterR;
#X msg 36 66 \$1 15;
#X obj 36 90 line~;
#X obj 84 66 r init;
#X msg 84 90 0;
#X obj 78 174 throw~ scope;
#X obj 184 174 throw~ scope;
#X connect 1 0 0 0;
#X connect 1 0 6 0;
#X connect 1 0 14 0;
#X connect 2 0 0 1;
#X connect 2 0 7 0;
#X connect 2 0 15 0;
#X connect 3 0 10 0;
#X connect 4 0 1 0;
#X connect 5 0 2 0;
#X connect 6 0 8 0;
#X connect 7 0 9 0;
#X connect 10 0 11 0;
#X connect 11 0 1 1;
#X connect 11 0 2 1;
#X connect 12 0 13 0;
#X connect 13 0 1 1;
#X connect 13 0 2 1;
