#N canvas 4657 1331 990 615 12;
#X obj 43 15 notein;
#X obj 182 19 midiin;
#X obj 65 118 ctlin;
#X floatatom 14 51 5 0 0 0 - - - 0;
#X floatatom 63 52 5 0 0 0 - - - 0;
#X floatatom 119 51 5 0 0 0 - - - 0;
#X floatatom 10 152 5 0 0 0 - - - 0;
#X floatatom 81 152 5 0 0 0 - - - 0;
#X floatatom 152 152 5 0 0 0 - - - 0;
#X obj 119 80 s chan;
#X obj 63 80 s note;
#X obj 14 80 s vel;
#X obj 10 181 s ctlval;
#X obj 152 181 s ctlchan;
#X obj 81 181 s ctlnum;
#X obj 245 18 midirealtimein;
#X obj 358 18 sysexin;
#X connect 0 0 3 0;
#X connect 0 1 4 0;
#X connect 0 2 5 0;
#X connect 2 0 6 0;
#X connect 2 1 7 0;
#X connect 2 2 8 0;
#X connect 3 0 11 0;
#X connect 4 0 10 0;
#X connect 5 0 9 0;
#X connect 6 0 12 0;
#X connect 7 0 14 0;
#X connect 8 0 13 0;
