#N canvas 447 378 450 300 12;
#X obj 265 11 mlChannel 1;
#X obj 356 11 mlMaster 1;
#X obj 188 11 mlInput 1;
#X obj 188 30 mlInput 2;
#X text 4 4 mlMixer;
#X obj 78 10 loadbang;
#X msg 78 97 \; pd dsp 1 \;;
#X obj 78 68 delay 500;
#X obj 93 39 s init;
#X obj 265 31 mlChannel 2;
#X obj 265 51 mlChannel 3;
#X obj 265 71 mlChannel 4;
#X obj 265 91 mlChannel 5;
#X obj 265 111 mlChannel 6;
#X obj 265 131 mlChannel 7;
#X obj 265 150 mlChannel 8;
#X connect 5 0 7 0;
#X connect 5 0 8 0;
#X connect 7 0 6 0;
