#N canvas 539 94 425 499 12;
#X obj 43 24 notein;
#X obj 182 19 midiin;
#X obj 65 118 ctlin;
#X floatatom 14 51 5 0 0 0 - - - 0;
#X floatatom 63 52 5 0 0 0 - - - 0;
#X floatatom 119 51 5 0 0 0 - - - 0;
#X floatatom 10 152 5 0 0 0 - - - 0;
#X floatatom 81 152 5 0 0 0 - - - 0;
#X floatatom 152 152 5 0 0 0 - - - 0;
#X obj 245 18 midirealtimein;
#X obj 358 18 sysexin;
#X obj 14 80 s mvel;
#X obj 63 80 s mnote;
#X obj 119 80 s mchan;
#X obj 10 181 s mctlval;
#X obj 81 181 s mctlnum;
#X obj 152 181 s mctlchan;
#X obj 11 372 moses 1;
#X obj 11 342 r velocity;
#X obj 48 226 loadbang;
#X obj 116 431 pack s s f s f s f;
#X obj 116 456 print;
#X obj 198 341 r note;
#X obj 157 281 r channel;
#X obj 239 401 r velocity;
#X msg 78 401 NoteOn;
#X msg 11 402 NoteOff;
#X obj 136 251 symbol Ch;
#X obj 177 311 symbol Note;
#X obj 218 371 symbol Velocity;
#X connect 0 0 3 0;
#X connect 0 1 4 0;
#X connect 0 2 5 0;
#X connect 2 0 6 0;
#X connect 2 1 7 0;
#X connect 2 2 8 0;
#X connect 3 0 11 0;
#X connect 4 0 12 0;
#X connect 5 0 13 0;
#X connect 6 0 14 0;
#X connect 7 0 15 0;
#X connect 8 0 16 0;
#X connect 17 0 26 0;
#X connect 17 1 25 0;
#X connect 18 0 17 0;
#X connect 19 0 27 0;
#X connect 19 0 28 0;
#X connect 19 0 29 0;
#X connect 20 0 21 0;
#X connect 22 0 20 4;
#X connect 23 0 20 2;
#X connect 24 0 20 6;
#X connect 25 0 20 0;
#X connect 26 0 20 0;
#X connect 27 0 20 1;
#X connect 28 0 20 3;
#X connect 29 0 20 5;
