#N canvas 675 80 531 468 12;
#X obj 24 40 inlet~ signal;
#X obj 24 290 outlet~ left;
#X obj 130 290 outlet~ right;
#X obj 98 73 inlet control;
#X obj 98 97 / 4;
#X floatatom 98 121 5 0 0 0 - - - 0;
#X obj 148 164 + 0.75;
#X obj 148 188 \$1 10;
#X obj 148 212 line~;
#X obj 148 236 cos~;
#X obj 130 260 *~;
#X obj 42 187 \$1 10;
#X obj 42 211 line~;
#X obj 42 235 cos~;
#X obj 24 260 *~;
#X text 7 3 mlPanner;
#X connect 0 0 14 0;
#X connect 0 0 10 0;
#X connect 3 0 4 0;
#X connect 4 0 5 0;
#X connect 5 0 6 0;
#X connect 5 0 11 0;
#X connect 6 0 7 0;
#X connect 7 0 8 0;
#X connect 8 0 9 0;
#X connect 9 0 10 1;
#X connect 10 0 2 0;
#X connect 11 0 12 0;
#X connect 12 0 13 0;
#X connect 13 0 14 1;
#X connect 14 0 1 0;
