#N canvas 724 173 1064 702 12;
#X text 1 2 mlSampler;
#N canvas 0 22 450 278 (subpatch) 0;
#X array sDataL 441000 float 2;
#X coords 0 1 441000 -1 300 80 1 0 0;
#X restore 643 144 graph;
#N canvas 0 22 450 278 (subpatch) 0;
#X array sDataR 441000 float 2;
#X coords 0 1 441000 -1 300 80 1 0 0;
#X restore 643 225 graph;
#X obj 351 526 outlet~ opL;
#X obj 331 576 outlet~ opR;
#X msg 892 22 \; sDataL normalize \; sDataR normalize \;;
#X obj 20 264 tabwrite~ sDataL;
#X obj 28 238 tabwrite~ sDataR;
#X obj 158 258 * 44100;
#X obj 151 339 array size sDataL;
#X obj 133 363 array size sDataR;
#X obj 10 30 bng 15 250 50 0 empty empty Sample 17 7 0 10 -262144 -1
-162280;
#X floatatom 167 291 12 0 0 0 - - -;
#X obj 125 200 t b b;
#X text 189 232 Seconds to sample;
#N canvas 641 472 450 300 samplerUI 0;
#X restore 325 1 pd samplerUI;
#X obj 19 198 inlet~ ip1;
#X obj 27 171 inlet~ ip2;
#X obj 862 107 inlet midi;
#X obj 72 30 bng 15 250 50 0 empty empty Open 17 7 0 10 -262144 -162280
-162280;
#X obj 343 63 openpanel;
#X msg 343 87 read -resize \$1 sDataL sDataR;
#X obj 343 111 soundfiler;
#X floatatom 343 135 12 0 0 0 - - -;
#X obj 340 302 expr 44100 / $f1;
#X obj 343 158 s sDataSize;
#X floatatom 440 362 5 0 0 0 - - -;
#X obj 341 450 phasor~;
#X obj 341 474 *~;
#X obj 358 278 r sDataSize;
#X obj 351 501 tabread4~ sDataL;
#X obj 331 552 tabread4~ sDataR;
#X msg 359 362 0;
#X obj 488 494 snapshot~;
#X obj 488 451 tgl 15 0 empty empty empty 17 7 0 10 -262144 -1 -1 0
1;
#X obj 488 471 metro 50;
#X obj 488 543 /;
#X obj 506 519 r sDataSize;
#X floatatom 488 568 12 0 0 0 - - UIposSlider;
#X obj 646 312 hsl 300 15 0 1 0 0 posSlider UIposSlider empty -2 -8
0 10 -62349 -167121 -1 4872 0;
#X msg 490 362 1;
#X obj 391 393 hsl 128 15 -1 1 0 0 empty empty empty -2 -8 0 10 -62349
-167121 -1 6350 1;
#X obj 387 426 r posSlider;
#X obj 167 314 s sDataSize;
#X msg 157 232 10;
#X obj 627 42 soundfiler;
#X obj 694 61 print;
#X floatatom 627 61 5 0 0 0 - - -;
#X msg 627 23 write -wave foo2.wav sDataL sDataR;
#X obj 91 58 bng 30 250 50 0 empty empty Play 3 15 0 10 -262144 -1
-1;
#X msg 399 362 0;
#X obj 10 58 bng 30 250 50 0 empty empty Stop 3 15 0 10 -262144 -1
-1;
#X obj 50 58 bng 30 250 50 0 empty empty Pause 1 15 0 10 -262144 -1
-1;
#X obj 93 98 bng 15 250 50 0 empty empty write 17 7 0 10 -262144 -1
-1;
#X connect 8 0 9 0;
#X connect 8 0 10 0;
#X connect 8 0 12 0;
#X connect 11 0 13 0;
#X connect 12 0 43 0;
#X connect 13 0 6 0;
#X connect 13 0 7 0;
#X connect 13 1 44 0;
#X connect 16 0 6 0;
#X connect 17 0 7 0;
#X connect 19 0 20 0;
#X connect 20 0 21 0;
#X connect 21 0 22 0;
#X connect 22 0 23 0;
#X connect 23 0 25 0;
#X connect 24 0 26 0;
#X connect 24 0 27 0;
#X connect 26 0 41 0;
#X connect 27 0 28 0;
#X connect 28 0 30 0;
#X connect 28 0 31 0;
#X connect 28 0 33 0;
#X connect 29 0 28 1;
#X connect 29 0 24 0;
#X connect 30 0 3 0;
#X connect 31 0 4 0;
#X connect 32 0 41 0;
#X connect 32 0 27 1;
#X connect 33 0 36 0;
#X connect 34 0 35 0;
#X connect 35 0 33 0;
#X connect 36 0 38 0;
#X connect 37 0 36 1;
#X connect 40 0 41 0;
#X connect 41 0 27 0;
#X connect 42 0 27 1;
#X connect 44 0 8 0;
#X connect 45 0 47 0;
#X connect 45 1 46 0;
#X connect 48 0 45 0;
#X connect 49 0 26 0;
#X connect 50 0 41 0;
#X connect 51 0 32 0;
#X connect 52 0 50 0;
#X connect 53 0 48 0;
#X coords 0 -1 1 1 150 120 2 0 0;
