#N canvas 329 494 289 137 12;
#N canvas 523 110 466 469 metros 1;
#X floatatom 114 71 5 0 1000 0 - globalTempo -;
#X obj 138 328 i;
#X obj 174 328 + 1;
#X obj 60 70 r init;
#X obj 47 40 r transStop;
#X msg 11 100 1;
#X msg 47 100 0;
#X obj 138 274 r transHome;
#X msg 138 298 0;
#X obj 47 362 s metroBang;
#X obj 138 392 s metroCount;
#X obj 11 15 r transStart;
#X obj 47 244 metro 1 120 permin;
#X msg 132 131 4;
#X msg 172 131 0.5;
#X msg 212 131 1;
#X msg 170 167 1 \$1;
#X obj 170 191 /;
#X floatatom 170 215 5 0 0 0 - - -;
#X msg 114 100 tempo \$1 permin;
#X obj 236 362 % \$1;
#X floatatom 261 334 5 0 0 0 - globalSteps -;
#X obj 236 392 s metroStep;
#X obj 313 87 r init;
#X obj 341 163 s globalTempo;
#X msg 335 115 120;
#X obj 326 188 s UIGlobalTempo;
#X msg 292 188 16;
#X obj 294 215 s globalSteps;
#X obj 279 239 s UIGlobalSteps;
#X connect 0 0 19 0;
#X connect 1 0 2 0;
#X connect 1 0 10 0;
#X connect 1 0 20 0;
#X connect 2 0 1 1;
#X connect 3 0 6 0;
#X connect 4 0 6 0;
#X connect 5 0 12 0;
#X connect 6 0 12 0;
#X connect 7 0 8 0;
#X connect 8 0 1 0;
#X connect 11 0 5 0;
#X connect 12 0 9 0;
#X connect 12 0 1 0;
#X connect 13 0 16 0;
#X connect 14 0 16 0;
#X connect 15 0 16 0;
#X connect 16 0 17 0;
#X connect 17 0 18 0;
#X connect 18 0 12 1;
#X connect 19 0 12 0;
#X connect 20 0 22 0;
#X connect 21 0 20 1;
#X connect 23 0 25 0;
#X connect 23 0 27 0;
#X connect 25 0 24 0;
#X connect 25 0 26 0;
#X connect 27 0 28 0;
#X connect 27 0 29 0;
#X restore 5 5 pd metros;
#X obj 132 88 bng 20 250 50 0 transStart empty start -3 27 0 10 -162280
-162961 -228856;
#X obj 242 88 bng 20 250 50 0 transStop empty stop -2 27 0 10 -162280
-162961 -228856;
#X obj 32 88 bng 20 250 50 0 transHome empty home -1 27 0 10 -162280
-162961 -228856;
#X obj 28 50 hsl 128 15 1 350 0 0 globalTempo UIGlobalTempo Global\\\ Tempo
-2 -8 0 10 -66509 -167121 -162280 4330 1;
#X floatatom 170 47 5 0 0 2 bpm globalTempo -;
#X floatatom 114 6 5 0 0 1 Count metroCount -;
#X obj 83 5 bng 20 250 50 0 empty metroBang empty 5 27 0 10 -162280
-4034 -228856;
#X floatatom 218 47 5 0 64 2 steps UIGlobalSteps globalSteps;
#X floatatom 198 6 5 0 0 1 Step metroStep -;
