#N canvas 286 128 849 619 12;
#X obj 103 116 pack;
#X obj 103 135 \$1 \$2;
#X obj 103 154 line~;
#X obj 103 183 outlet~;
#X obj 182 67 inlet rate;
#X msg 128 66 20;
#X obj 128 47 r init;
#X obj 39 50 inlet value;
#X connect 0 0 1 0;
#X connect 1 0 2 0;
#X connect 2 0 3 0;
#X connect 4 0 0 1;
#X connect 5 0 0 1;
#X connect 6 0 5 0;
#X connect 7 0 0 0;
