#N canvas 898 501 578 583 12;
#X obj 10 59 t b b;
#X msg 10 88 1 \, 0 100;
#X obj 10 117 line~;
#X obj 10 146 pow~ 4;
#X obj 10 175 *~;
#X obj 130 117 line~;
#X obj 130 146 pow~ 4;
#X obj 130 175 *~;
#X obj 204 88 noise~;
#X msg 130 88 1 \, 0 200;
#X obj 10 204 +~;
#X obj 204 117 hip~ 3000;
#X obj 204 146 bp~ 5000 2;
#X obj 10 233 lop~ 4000;
#X obj 64 146 osc~ 200;
#X text 204 63 // SNARES;
#X text 64 121 // DRUM;
#X obj 10 30 inlet trigger;
#X obj 10 262 outlet~ snare;
#X text 2 6 Snare;
#X connect 0 0 1 0;
#X connect 0 1 9 0;
#X connect 1 0 2 0;
#X connect 2 0 3 0;
#X connect 3 0 4 0;
#X connect 4 0 10 0;
#X connect 5 0 6 0;
#X connect 6 0 7 0;
#X connect 7 0 10 1;
#X connect 8 0 11 0;
#X connect 9 0 5 0;
#X connect 10 0 13 0;
#X connect 11 0 12 0;
#X connect 12 0 7 1;
#X connect 13 0 18 0;
#X connect 14 0 4 1;
#X connect 17 0 0 0;
