#N canvas 748 254 468 446 12;
#X obj 134 5 inlet midi;
#X obj 230 375 outlet~;
#X obj 231 209 phasor~;
#X obj 231 66 mtof;
#X floatatom 231 90 5 0 0 0 - - -;
#X obj 231 137 pack;
#X floatatom 256 114 5 0 500 1 Slew\ rate - -;
#X obj 231 161 \$1 \$2;
#X obj 231 185 line~;
#X obj 231 233 expr~ $v1 *2 - 1;
#X obj 146 161 r transStop;
#X floatatom 146 185 5 0 0 0 - - -;
#X obj 230 350 *~;
#X obj 138 306 vline~;
#X msg 138 282 0.9 20 0 \, 0 300 20;
#X text 272 282 Amp Emv;
#X text 355 233 Makes bipolar;
#X obj 231 257 lop~ 500;
#X obj 178 36 select 0;
#X connect 0 0 14 0;
#X connect 0 0 18 0;
#X connect 2 0 9 0;
#X connect 3 0 4 0;
#X connect 4 0 5 0;
#X connect 5 0 7 0;
#X connect 6 0 5 1;
#X connect 7 0 8 0;
#X connect 8 0 2 0;
#X connect 9 0 17 0;
#X connect 10 0 11 0;
#X connect 11 0 2 0;
#X connect 12 0 1 0;
#X connect 13 0 12 1;
#X connect 14 0 13 0;
#X connect 17 0 12 0;
#X connect 18 1 3 0;
